<svg xmlns="http://www.w3.org/2000/svg" width="736.3" height="71.201" viewBox="0 0 736.3 71.201">
  <style>
    path { fill: #000 } /* set theme background color */

    @media (prefers-color-scheme: dark) {
    path { fill: #fff }
    }
  </style>
  <path d="M 37.8 70 L 24.5 70 L 0 0 L 11.6 0 L 31.2 59.3 L 39.8 33.6 L 28 0 L 39.5 0 L 47.4 24.6 L 55.2 0 L 66.7 0 L
           54.9 33.6 L 63.4 59.3 L 83.1 0 L 94.7 0 L 70.2 70 L 56.8 70 L 47.4 42.4 L 37.8 70 Z"/>
  <path d="M 139.8 48.4 L 102.1 48.4 A 18.094 18.094 0 0 0 102.915 52.625 A 15.319 15.319 0 0 0 104.1 55.35 Q 105.8
           58.4 108.75 60.1 A 12.761 12.761 0 0 0 113.878 61.719 A 15.84 15.84 0 0 0 115.5 61.8 A 15.556 15.556 0 0 0
           118.737 61.48 A 11.28 11.28 0 0 0 122.45 60 A 11.57 11.57 0 0 0 126.198 56.115 A 14.517 14.517 0 0 0 126.9
           54.8 L 138.8 54.8 Q 137.4 59.3 134.35 63 A 22.215 22.215 0 0 1 127.648 68.44 A 25.998 25.998 0 0 1 126.65
           68.95 A 21.864 21.864 0 0 1 120.897 70.769 A 29.898 29.898 0 0 1 115.7 71.2 Q 108.2 71.2 102.6 67.85 Q 97
           64.5 93.85 58.65 A 26.286 26.286 0 0 1 90.963 49.448 A 33.349 33.349 0 0 1 90.7 45.2 A 33.407 33.407 0 0 1
           91.347 38.472 A 25.096 25.096 0 0 1 93.85 31.5 Q 97 25.7 102.65 22.45 A 24.277 24.277 0 0 1 111.51 19.486
           A 31.186 31.186 0 0 1 115.8 19.2 A 28.574 28.574 0 0 1 122.226 19.892 A 22.306 22.306 0 0 1 128.5 22.35 Q
           133.9 25.5 137 31 A 24.187 24.187 0 0 1 139.982 40.823 A 29.769 29.769 0 0 1 140.1 43.5 Q 140.1 44.807
           140.056 45.853 A 39.195 39.195 0 0 1 140.05 46 Q 140 47.1 139.8 48.4 Z M 102.2 40.5 L 128.5 40.5 A 13.087
           13.087 0 0 0 127.857 36.554 A 10.476 10.476 0 0 0 124.6 31.8 A 13.558 13.558 0 0 0 116.034 28.608 A 17.187
           17.187 0 0 0 115.5 28.6 Q 110.7 28.6 106.85 31.5 A 10.994 10.994 0 0 0 103.29 36.223 Q 102.513 38.117
           102.2 40.5 Z"/>
  <path d="M 159.6 62.7 L 159.4 70 L 148.3 70 L 148.3 0 L 159.6 0 L 159.6 27.8 A 18.654 18.654 0 0 1 165.832 22.004
           A 22.111 22.111 0 0 1 166.65 21.55 A 20.319 20.319 0 0 1 173.86 19.366 A 25.442 25.442 0 0 1 176.8 19.2
           A 25.208 25.208 0 0 1 183.269 19.996 A 20.241 20.241 0 0 1 189.25 22.65 Q 194.5 26.1 197.4 31.95 A 28.013
           28.013 0 0 1 200.141 41.758 A 34.378 34.378 0 0 1 200.3 45.1 A 31.023 31.023 0 0 1 199.051 54.012 A 27.787
           27.787 0 0 1 197.4 58.25 Q 194.5 64.2 189.25 67.7 A 20.686 20.686 0 0 1 180.697 70.915 A 27.171 27.171 0
           0 1 176.7 71.2 A 22.836 22.836 0 0 1 168.761 69.835 A 21.583 21.583 0 0 1 166.9 69.05 Q 162.4 66.9 159.6
           62.7 Z M 174.2 61.3 Q 178.5 61.3 181.8 59.2 A 14.084 14.084 0 0 0 186.698 53.841 A 16.89 16.89 0 0 0
           186.95 53.35 A 18.148 18.148 0 0 0 188.781 46.006 A 21.357 21.357 0 0 0 188.8 45.1 A 20.711 20.711 0 0
           0 188.386 40.859 A 15.578 15.578 0 0 0 186.85 36.6 A 14.581 14.581 0 0 0 183.643 32.527 A 13.569 13.569
           0 0 0 181.6 31.05 A 14.138 14.138 0 0 0 174.773 29.11 A 16.897 16.897 0 0 0 174.2 29.1 A 15.258 15.258 0
           0 0 169.986 29.662 A 12.839 12.839 0 0 0 166.65 31.15 A 14.009 14.009 0 0 0 161.787 36.4 A 16.681 16.681 0
           0 0 161.55 36.85 A 17.044 17.044 0 0 0 159.881 42.365 A 21.615 21.615 0 0 0 159.7 45.2 A 20.389 20.389 0 0
           0 160.192 49.768 A 16.48 16.48 0 0 0 161.55 53.55 Q 163.4 57.2 166.7 59.25 A 13.697 13.697 0 0 0 173.292
           61.275 A 16.633 16.633 0 0 0 174.2 61.3 Z"/>
  <path d="M 221.9 70 L 210.5 70 L 210.5 0 L 221.9 0 L 221.9 28.2 L 254.9 28.2 L 254.9 0 L 266.2 0 L 266.2 70 L 254.9
           70 L 254.9 37.7 L 221.9 37.7 L 221.9 70 Z"/>
  <path d="M 301.1 71.2 Q 293.8 71.2 288 68 Q 282.2 64.8 278.85 58.95 A 25.023 25.023 0 0 1 275.896 50.389 A 32.816
           32.816 0 0 1 275.5 45.2 A 31.467 31.467 0 0 1 276.17 38.553 A 23.535 23.535 0 0 1 279 31.3 Q 282.5 25.5
           288.4 22.35 A 27.015 27.015 0 0 1 300.106 19.23 A 32.077 32.077 0 0 1 301.5 19.2 A 29.115 29.115 0 0 1
           309.658 20.31 A 25.505 25.505 0 0 1 314.65 22.35 Q 320.5 25.5 323.95 31.3 Q 327.4 37.1 327.4 45.2 A
           28.769 28.769 0 0 1 326.34 53.131 A 24.852 24.852 0 0 1 324.05 58.6 Q 320.7 64.5 314.75 67.85 Q 308.8
           71.2 301.1 71.2 Z M 301.2 61.4 A 14.565 14.565 0 0 0 305.472 60.793 A 12.549 12.549 0 0 0 308.75 59.25
           A 15.037 15.037 0 0 0 313.657 53.856 A 17.822 17.822 0 0 0 313.9 53.4 Q 315.8 49.7 315.8 45 A 21.296
           21.296 0 0 0 315.41 40.826 A 15.873 15.873 0 0 0 313.9 36.5 A 14.451 14.451 0 0 0 310.912 32.565 A
           13.267 13.267 0 0 0 308.75 30.95 A 13.741 13.741 0 0 0 302.842 29.069 A 17.023 17.023 0 0 0 301.3 29
           A 15.52 15.52 0 0 0 297.247 29.509 A 12.652 12.652 0 0 0 293.65 31.1 Q 290.4 33.2 288.7 36.85 A 18.016
           18.016 0 0 0 287.21 42.025 A 23.216 23.216 0 0 0 287 45.2 A 22.314 22.314 0 0 0 287.37 49.368 A 16.003
           16.003 0 0 0 288.95 53.95 A 14.796 14.796 0 0 0 291.555 57.503 A 12.904 12.904 0 0 0 294.15 59.5 Q 297.4
           61.4 301.2 61.4 Z"/>
  <path d="M 360 71.2 Q 352.7 71.2 346.9 68 Q 341.1 64.8 337.75 58.95 A 25.023 25.023 0 0 1 334.796 50.389 A 32.816
           32.816 0 0 1 334.4 45.2 A 31.467 31.467 0 0 1 335.07 38.553 A 23.535 23.535 0 0 1 337.9 31.3 Q 341.4 25.5
           347.3 22.35 A 27.015 27.015 0 0 1 359.006 19.23 A 32.077 32.077 0 0 1 360.4 19.2 A 29.115 29.115 0 0 1
           368.558 20.31 A 25.505 25.505 0 0 1 373.55 22.35 Q 379.4 25.5 382.85 31.3 Q 386.3 37.1 386.3 45.2 A
           28.769 28.769 0 0 1 385.24 53.131 A 24.852 24.852 0 0 1 382.95 58.6 Q 379.6 64.5 373.65 67.85 Q 367.7
           71.2 360 71.2 Z M 360.1 61.4 A 14.565 14.565 0 0 0 364.372 60.793 A 12.549 12.549 0 0 0 367.65 59.25 A
           15.037 15.037 0 0 0 372.557 53.856 A 17.822 17.822 0 0 0 372.8 53.4 Q 374.7 49.7 374.7 45 A 21.296
           21.296 0 0 0 374.31 40.826 A 15.873 15.873 0 0 0 372.8 36.5 A 14.451 14.451 0 0 0 369.812 32.565 A
           13.267 13.267 0 0 0 367.65 30.95 A 13.741 13.741 0 0 0 361.742 29.069 A 17.023 17.023 0 0 0 360.2 29
           A 15.52 15.52 0 0 0 356.147 29.509 A 12.652 12.652 0 0 0 352.55 31.1 Q 349.3 33.2 347.6 36.85 A 18.016
           18.016 0 0 0 346.11 42.025 A 23.216 23.216 0 0 0 345.9 45.2 A 22.314 22.314 0 0 0 346.27 49.368 A 16.003
           16.003 0 0 0 347.85 53.95 A 14.796 14.796 0 0 0 350.455 57.503 A 12.904 12.904 0 0 0 353.05 59.5 Q
           356.3 61.4 360.1 61.4 Z"/>
  <path d="M 406.4 70 L 395.1 70 L 395.1 0 L 406.4 0 L 406.4 41.4 L 424.2 20.4 L 438.6 20.4 L 416.8 44.5 L 439.8 70
           L 425.2 70 L 406.4 47.4 L 406.4 70 Z"/>
  <path d="M 496.6 70 L 485.3 70 L 485.3 9.6 L 464.7 9.6 L 464.7 0 L 517.2 0 L 517.2 9.6 L 496.6 9.6 L 496.6 70 Z"/>
  <path d="M 562 48.4 L 524.3 48.4 A 18.094 18.094 0 0 0 525.115 52.625 A 15.319 15.319 0 0 0 526.3 55.35 Q 528 58.4
           530.95 60.1 A 12.761 12.761 0 0 0 536.078 61.719 A 15.84 15.84 0 0 0 537.7 61.8 A 15.556 15.556 0 0 0
           540.937 61.48 A 11.28 11.28 0 0 0 544.65 60 A 11.57 11.57 0 0 0 548.398 56.115 A 14.517 14.517 0 0 0
           549.1 54.8 L 561 54.8 Q 559.6 59.3 556.55 63 A 22.215 22.215 0 0 1 549.848 68.44 A 25.998 25.998 0 0
           1 548.85 68.95 A 21.864 21.864 0 0 1 543.097 70.769 A 29.898 29.898 0 0 1 537.9 71.2 Q 530.4 71.2
           524.8 67.85 Q 519.2 64.5 516.05 58.65 A 26.286 26.286 0 0 1 513.163 49.448 A 33.349 33.349 0 0 1
           512.9 45.2 A 33.407 33.407 0 0 1 513.547 38.472 A 25.096 25.096 0 0 1 516.05 31.5 Q 519.2 25.7 524.85
           22.45 A 24.277 24.277 0 0 1 533.71 19.486 A 31.186 31.186 0 0 1 538 19.2 A 28.574 28.574 0 0 1 544.426
           19.892 A 22.306 22.306 0 0 1 550.7 22.35 Q 556.1 25.5 559.2 31 A 24.187 24.187 0 0 1 562.182 40.823 A
           29.769 29.769 0 0 1 562.3 43.5 Q 562.3 44.807 562.256 45.853 A 39.195 39.195 0 0 1 562.25 46 Q 562.2
           47.1 562 48.4 Z M 524.4 40.5 L 550.7 40.5 A 13.087 13.087 0 0 0 550.057 36.554 A 10.476 10.476 0 0 0
           546.8 31.8 A 13.558 13.558 0 0 0 538.234 28.608 A 17.187 17.187 0 0 0 537.7 28.6 Q 532.9 28.6 529.05
           31.5 A 10.994 10.994 0 0 0 525.49 36.223 Q 524.712 38.117 524.4 40.5 Z"/>
  <path d="M 568.5 54.4 L 579.9 54.4 Q 580.5 57.9 583.35 60.05 A 10.583 10.583 0 0 0 588.324 62.065 A 14.024 14.024
           0 0 0 590.3 62.2 Q 593.648 62.2 595.972 60.89 A 8.552 8.552 0 0 0 596.45 60.6 Q 598.9 59 598.9 56.2 A
           5.434 5.434 0 0 0 598.661 54.548 A 4.289 4.289 0 0 0 597.2 52.45 Q 595.5 51.1 593 50.35 A 73.446 73.446
           0 0 0 588.137 49.076 A 80.157 80.157 0 0 0 587.8 49 A 65.784 65.784 0 0 1 581.645 47.251 A 56.417 56.417
           0 0 1 579.05 46.3 A 18.19 18.19 0 0 1 575.184 44.233 A 14.957 14.957 0 0 1 572.5 41.8 A 10.014 10.014 0
           0 1 570.323 37.346 A 14.524 14.524 0 0 1 570 34.2 A 14.186 14.186 0 0 1 570.61 29.964 A 11.976 11.976 0
           0 1 572.6 26.15 Q 575.2 22.8 579.55 21 A 23.611 23.611 0 0 1 585.869 19.394 A 29.556 29.556 0 0 1 589.3
           19.2 A 27.083 27.083 0 0 1 595.509 19.877 A 19.732 19.732 0 0 1 602.95 23.3 A 14.758 14.758 0 0 1 608.505
           32.026 A 21.388 21.388 0 0 1 609 35.3 L 598.2 35.3 A 8.565 8.565 0 0 0 597.575 32.888 A 6.708 6.708 0 0
           0 595.35 30.1 A 8.857 8.857 0 0 0 592.186 28.657 Q 590.941 28.35 589.483 28.307 A 16.322 16.322 0 0 0
           589 28.3 A 14.75 14.75 0 0 0 586.612 28.483 Q 585.249 28.707 584.129 29.204 A 8.246 8.246 0 0 0 583.35
           29.6 A 4.265 4.265 0 0 0 581.195 32.678 A 6.352 6.352 0 0 0 581.1 33.8 A 3.961 3.961 0 0 0 582.409
           36.807 A 5.263 5.263 0 0 0 582.75 37.1 Q 584.4 38.4 586.95 39.25 Q 589.5 40.1 592 40.7 Q 597.1 41.9
           601.1 43.5 Q 605.1 45.1 607.45 48 A 10.205 10.205 0 0 1 609.275 51.549 Q 609.707 52.996 609.843 54.72
           A 20.265 20.265 0 0 1 609.9 55.9 A 14.798 14.798 0 0 1 609.329 60.092 A 12.213 12.213 0 0 1 607.3 64.1
           A 16.134 16.134 0 0 1 602.139 68.466 A 19.991 19.991 0 0 1 600.3 69.35 A 23.519 23.519 0 0 1 594.051
           70.981 A 29.624 29.624 0 0 1 590.4 71.2 A 27.785 27.785 0 0 1 582.725 70.164 A 25.118 25.118 0 0 1
           579.85 69.15 A 20.688 20.688 0 0 1 574.26 65.706 A 18.783 18.783 0 0 1 571.95 63.3 Q 568.9 59.5
           568.5 54.4 Z"/>
  <path d="M 645.1 70 L 637.2 70 A 25.057 25.057 0 0 1 632.802 69.639 Q 630.367 69.204 628.442 68.246 A 12.074
           12.074 0 0 1 625.6 66.3 A 11.198 11.198 0 0 1 622.729 61.864 Q 622.059 60.047 621.786 57.791 A 27.5
           27.5 0 0 1 621.6 54.5 L 621.6 29.9 L 614.5 29.9 L 614.5 20.4 L 621.6 20.4 L 621.6 8.4 L 633 8.4 L
           633 20.4 L 645.1 20.4 L 645.1 29.9 L 633 29.9 L 633 54.6 A 11.265 11.265 0 0 0 633.106 56.21 Q
           633.375 58.064 634.323 59.006 A 3.11 3.11 0 0 0 634.6 59.25 Q 636.2 60.5 639.4 60.5 L 645.1 60.5
           L 645.1 70 Z"/>
  <path d="M 700 48.4 L 662.3 48.4 A 18.094 18.094 0 0 0 663.115 52.625 A 15.319 15.319 0 0 0 664.3 55.35 Q 666
           58.4 668.95 60.1 A 12.761 12.761 0 0 0 674.078 61.719 A 15.84 15.84 0 0 0 675.7 61.8 A 15.556 15.556 0
           0 0 678.937 61.48 A 11.28 11.28 0 0 0 682.65 60 A 11.57 11.57 0 0 0 686.398 56.115 A 14.517 14.517 0 0 0
           687.1 54.8 L 699 54.8 Q 697.6 59.3 694.55 63 A 22.215 22.215 0 0 1 687.848 68.44 A 25.998 25.998 0 0 1
           686.85 68.95 A 21.864 21.864 0 0 1 681.097 70.769 A 29.898 29.898 0 0 1 675.9 71.2 Q 668.4 71.2 662.8
           67.85 Q 657.2 64.5 654.05 58.65 A 26.286 26.286 0 0 1 651.163 49.448 A 33.349 33.349 0 0 1 650.9 45.2
           A 33.407 33.407 0 0 1 651.547 38.472 A 25.096 25.096 0 0 1 654.05 31.5 Q 657.2 25.7 662.85 22.45 A
           24.277 24.277 0 0 1 671.71 19.486 A 31.186 31.186 0 0 1 676 19.2 A 28.574 28.574 0 0 1 682.426 19.892
           A 22.306 22.306 0 0 1 688.7 22.35 Q 694.1 25.5 697.2 31 A 24.187 24.187 0 0 1 700.182 40.823 A 29.769
           29.769 0 0 1 700.3 43.5 Q 700.3 44.807 700.256 45.853 A 39.195 39.195 0 0 1 700.25 46 Q 700.2 47.1 700
           48.4 Z M 662.4 40.5 L 688.7 40.5 A 13.087 13.087 0 0 0 688.057 36.554 A 10.476 10.476 0 0 0 684.8 31.8
           A 13.558 13.558 0 0 0 676.234 28.608 A 17.187 17.187 0 0 0 675.7 28.6 Q 670.9 28.6 667.05 31.5 A 10.994
           10.994 0 0 0 663.49 36.223 Q 662.712 38.117 662.4 40.5 Z"/>
  <path d="M 719.8 70 L 708.5 70 L 708.5 20.4 L 719.5 20.4 L 719.7 28.5 Q 722.2 24.1 726.45 21.65 A 18.268 18.268 0
           0 1 733.257 19.394 A 23.244 23.244 0 0 1 736.3 19.2 L 736.3 31.1 L 733.2 31.1 Q 726.4 31.1 723.1 34.5 Q
           719.8 37.9 719.8 45.1 L 719.8 70 Z"/>
</svg>
