<svg xmlns="http://www.w3.org/2000/svg" viewBox="0 0 404.79 404.79">
  <circle fill="#4a90e2" cx="202.4" cy="202.4" r="202.4"/>
  <path d="M59.87 296.91c20.95 34.87 66.21 46.14 101.07 25.19 19.67-11.82 31.81-31.37 34.91-52.42l57.75-.01c.48
           1.03 1.01 2.05 1.61 3.05 9.01 14.99 28.47 19.84 43.47 10.83s19.84-28.47
           10.83-43.47c-9.01-14.99-28.47-19.84-43.47-10.83-5.34 3.21-9.39 7.75-11.99 12.94l-59.33.01H165.2c3.56
           8.93 4.09 18.53 1.92 27.48-2.76 11.39-9.9 21.7-20.73 28.22-21.5 12.92-49.4 5.97-62.32-15.53s-5.97-49.4
           15.53-62.32c4.33-2.6 8.93-4.39 13.61-5.42l-8.53-27c-6.74 1.73-13.35 4.44-19.62 8.21-34.87 20.95-46.15
           66.21-25.19 101.07zm288.71-1.62c20.1-35.36
           7.74-80.33-27.63-100.43-19.95-11.34-42.94-12.33-62.81-4.71l-28.33-50.32c.67-.92 1.29-1.89
           1.87-2.9 8.65-15.21 3.33-34.54-11.88-43.19s-34.54-3.33-43.19 11.88-3.33 34.54 11.88 43.19c5.42
           3.08 11.36 4.38 17.16 4.1l29.11 51.7 14.48 25.73c6.04-7.49 14.14-12.66 23-15.15 11.28-3.18 23.77-2.02
           34.76 4.23 21.8 12.4 29.43 40.12 17.03 61.92s-40.12 29.43-61.92 17.03c-4.39-2.5-8.2-5.63-11.4-9.2l-19.34
           20.68c4.82 5.02 10.42 9.45 16.78 13.07 35.36 20.1 80.32 7.73 100.43-27.63z"
        fill="#152941"/>
  <path d="M202.18 44.34c-40.68.36-73.36 33.62-73.01 74.3.2 22.94 10.88 43.33 27.45 56.69l-29.31 49.76a32.62 32.62
           0 0 0-3.44-.16c-17.49.15-31.55 14.46-31.4 31.95s14.46 31.55 31.95 31.4 31.55-14.46
           31.4-31.95c-.05-6.23-1.91-12.02-5.07-16.9l30.11-51.12
           14.98-25.44c-9.5-1.47-18.05-5.88-24.65-12.29-8.41-8.16-13.68-19.54-13.79-32.18-.22-25.08
           19.93-45.59 45.01-45.81S248 92.52 248.22 117.6a45.28 45.28 0 0 1-2.24 14.47l27.59 6.35a73.36
           73.36 0 0 0 2.88-21.07c-.33-40.68-33.59-73.37-74.27-73.01z" fill="#fff"/>
</svg>
