<svg width="814" height="521" viewBox="0 0 814 521" fill="none" xmlns="http://www.w3.org/2000/svg">
<path d="M180.899 176.569C95.9327 118.002 -6.9309 236.788 107.665 305.518L180.899 176.569Z" fill="#4D4D4D"/>
<path d="M60.7818 254.459C51.4059 199.179 116.833 149.759 176.787 183.813L180.899 176.569C114.921 131.097 38.169 192.535 60.7818 254.459Z" fill="#F0F0F0"/>
<path d="M107.446 309.9C106.748 309.865 106.05 309.664 105.409 309.28C70.0852 288.094 51.2614 259.742 52.4051 229.449C53.4126 202.753 70.0617 178.135 95.8559 165.201C123.919 151.131 155.825 153.958 183.388 172.956C185.383 174.332 185.886 177.064 184.511 179.058C183.135 181.054 180.403 181.554 178.409 180.181C153.559 163.052 124.903 160.451 99.7884 173.044C76.8559 184.543 62.0594 206.282 61.1723 229.78C60.155 256.73 77.4682 282.291 109.922 301.755C112 303.002 112.673 305.696 111.427 307.774C110.565 309.211 109.011 309.977 107.446 309.9Z" fill="#1C1C1C"/>
<path d="M327.823 141.271C375.262 35.2946 517.222 116.098 448.577 218.544L327.823 141.271Z" fill="#4D4D4D"/>
<path d="M327.821 141.268L334.342 145.44C368.285 79.4282 441.696 95.0873 464.097 143.453C447.364 86.0579 362.438 63.9467 327.821 141.268Z" fill="#F0F0F0"/>
<path d="M448.79 222.926C447.881 222.971 446.95 222.734 446.136 222.188C444.123 220.84 443.584 218.114 444.933 216.102C471.974 175.747 462.196 145.216 453.962 130.609C441.424 108.37 417.273 94.7424 392.434 95.8915C392.372 95.8938 392.306 95.897 392.244 95.9001C366.323 97.1757 344.874 113.916 331.827 143.063C330.837 145.274 328.242 146.265 326.031 145.275C323.819 144.286 322.829 141.69 323.819 139.479C338.075 107.631 362.855 88.5621 391.82 87.1367C391.891 87.1332 391.958 87.1299 392.029 87.1269C420.146 85.8265 447.456 101.203 461.605 126.301C477.303 154.147 473.884 188.659 452.222 220.986C451.419 222.184 450.128 222.86 448.79 222.926Z" fill="#1C1C1C"/>
<path d="M412.727 195.603L448.576 218.541C473.93 180.71 470.555 145.824 453.828 122.209C456.735 150 443.972 179.977 412.727 195.603Z" fill="#1C1C1C"/>
<path d="M678.719 293.3L661.21 269.514L641.604 242.89C658.452 230.481 674.264 230.064 684.956 236.107C702.415 245.962 706.237 273.053 678.719 293.3Z" fill="#838383"/>
<path d="M678.719 293.3L661.21 269.514L658.744 260.708C673.041 270.01 689.708 249.63 684.956 236.107C702.415 245.962 706.237 273.053 678.719 293.3Z" fill="#333333"/>
<path d="M686.785 244.112C692.236 247.188 696.356 251.945 698.61 257.648C697.876 248.446 692.8 240.534 684.956 236.106C674.264 230.063 658.452 230.481 641.603 242.89L646.122 249.025C661.954 238.477 676.664 238.392 686.785 244.112Z" fill="#F0F0F0"/>
<path d="M678.98 297.681C677.546 297.766 676.098 297.146 675.182 295.902C673.746 293.95 674.163 291.204 676.114 289.768C696.548 274.727 697.585 256.64 689.9 246.201C685.813 240.648 679.472 237.299 672.045 236.768C663.262 236.136 653.632 239.477 644.204 246.417C642.253 247.851 639.507 247.436 638.07 245.485C636.634 243.533 637.052 240.787 639.003 239.351C663.165 221.566 686.453 226.717 696.966 240.999C702.602 248.655 704.44 258.264 702.143 268.056C699.648 278.689 692.446 288.641 681.316 296.834C680.609 297.354 679.796 297.632 678.98 297.681Z" fill="#1C1C1C"/>
<g opacity="0.1">
  <path d="M813.459 466.456C813.459 496.473 631.472 520.806 406.98 520.806C182.487 520.806 0.5 496.473 0.5 466.456C0.5 436.439 182.487 412.106 406.98 412.106C631.472 412.106 813.459 436.439 813.459 466.456Z" fill="#EEE"/>
</g>
<path d="M259.865 464.873H109.005C18.8254 464.873 18.8254 384.65 109.005 384.65H204.372" fill="#4D4D4D"/>
<path d="M259.868 464.869H109.005C66.2949 464.869 43.8179 446.88 41.5613 427.935C52.7552 436.515 70.5533 442.392 94.9811 442.392H244.314L259.868 464.869Z" fill="#333333"/>
<path d="M259.868 464.869H258.721L209.47 393.664H114.105C61.948 393.664 39.9554 420.514 48.1275 443.145C29.3733 419.38 49.6703 384.651 109.005 384.651H204.371L259.868 464.869Z" fill="#F0F0F0"/>
<path d="M696.609 475.413C694.556 475.477 692.452 475.502 690.311 475.502H371.055C368.25 475.413 365.547 475.247 362.946 475.043C269.417 467.457 309.794 386.537 478.736 392.364L324.596 287.526C334.592 277.25 345.046 267.841 355.845 259.312C393.812 229.313 435.923 210.176 477.104 201.902C528.866 191.486 579.124 198.23 617.729 222.122C662.747 249.941 691.917 301.053 689.176 375.394C695.933 376.287 702.359 377.6 708.415 379.258C713.489 380.647 718.295 382.279 722.809 384.115C784.541 409.244 793.644 472.799 696.609 475.413Z" fill="#F0F0F0"/>
<path d="M690.311 476.177H371.055C368.478 476.095 365.816 475.945 362.893 475.716C331.244 473.149 312.156 461.656 313.077 445.723C313.876 431.885 329.932 417.605 356.027 407.524C377.511 399.225 415.757 389.787 476.433 391.614L323.552 287.632L324.112 287.056C333.973 276.918 344.508 267.405 355.426 258.782C392.201 229.725 434.23 209.827 476.97 201.24C529.672 190.635 579.787 197.847 618.084 221.548C666.766 251.632 692.247 306.04 689.871 374.807C696.266 375.678 702.561 376.955 708.592 378.606C713.599 379.977 718.467 381.62 723.063 383.49C754.249 396.185 773.396 419.535 769.626 440.274C765.697 461.89 739.089 474.944 696.627 476.088H696.63C694.7 476.148 692.633 476.177 690.311 476.177ZM461.443 392.735C409.584 392.735 376.064 401.231 356.514 408.783C330.927 418.669 315.192 432.507 314.425 445.8C313.551 460.922 332.164 471.869 363.001 474.37C365.9 474.597 368.542 474.747 371.076 474.827H690.311C692.619 474.827 694.672 474.798 696.587 474.739L696.59 474.738C738.357 473.613 764.493 460.964 768.298 440.033C771.953 419.928 753.142 397.191 722.554 384.74C718.008 382.891 713.191 381.266 708.236 379.909C702.072 378.221 695.629 376.928 689.087 376.063L688.478 375.983L688.501 375.369C691.029 306.822 665.769 252.602 617.374 222.696C579.37 199.176 529.601 192.026 477.237 202.564C434.704 211.109 392.872 230.916 356.263 259.841C345.599 268.265 335.299 277.541 325.642 287.421L481.046 393.119L478.713 393.038C472.746 392.832 466.986 392.735 461.443 392.735Z" fill="#333333"/>
<path d="M259.865 469.259H109.005C59.5211 469.259 36.9832 446.193 36.9832 424.761C36.9832 403.329 59.5211 380.262 109.005 380.262H204.372C206.795 380.262 208.759 382.226 208.759 384.649C208.759 387.073 206.795 389.036 204.372 389.036H109.005C67.4826 389.036 45.7573 407.008 45.7573 424.761C45.7573 442.514 67.4826 460.486 109.005 460.486H259.865C262.288 460.486 264.252 462.45 264.252 464.873C264.252 467.296 262.288 469.259 259.865 469.259Z" fill="#1C1C1C"/>
<path d="M545.823 374.017C539.805 397.145 524.569 433.786 501.263 455.065L440.59 424.76C440.59 424.76 380.936 393.435 382.631 380.124C384.098 368.612 364.081 284.9 355.845 259.312C362.704 253.893 369.691 248.832 376.792 244.127C408.997 222.76 443.356 208.684 477.104 201.902C477.448 201.838 481.439 202.59 487.444 204.847C513.478 214.638 577.39 252.657 545.823 374.017Z" fill="#4D4D4D"/>
<path d="M681.526 307.594C652.203 225.998 568.427 193.972 480.291 211.706C439.111 219.98 397 239.117 359.032 269.116C349.853 276.371 340.916 284.25 332.31 292.779L324.596 287.526C334.592 277.25 345.046 267.841 355.845 259.312C393.812 229.313 435.923 210.176 477.104 201.902C568.695 183.479 655.569 218.769 681.526 307.594Z" fill="#F0F0F0"/>
<path d="M455.117 233.007C509.827 257.863 535.777 306.857 536.739 376.825C536.917 389.764 525.197 399.646 512.454 397.398C491.485 393.698 460.15 389.752 433.717 392.938C389.427 398.275 455.117 233.007 455.117 233.007Z" fill="#333333"/>
<path d="M689.178 379.781C689.123 379.781 689.069 379.781 689.013 379.779C686.592 379.689 684.702 377.653 684.791 375.232C686.959 316.535 668.924 269.202 632.634 238.35C594.396 205.839 538.02 194.121 477.969 206.203C436.006 214.634 394.717 234.189 358.564 262.754C347.818 271.242 337.448 280.606 327.741 290.585C326.052 292.321 323.274 292.361 321.538 290.671C319.801 288.982 319.763 286.204 321.451 284.468C331.424 274.215 342.081 264.593 353.126 255.869C390.356 226.452 432.929 206.303 476.239 197.601C538.941 184.987 598.019 197.403 638.318 231.665C676.728 264.32 695.83 314.077 693.56 375.557C693.472 377.922 691.526 379.781 689.178 379.781Z" fill="#1C1C1C"/>
<path d="M118.407 378.34C150.448 478.49 241.218 491.834 338.015 460.866C434.812 429.898 500.981 366.346 468.94 266.196C436.899 166.045 332.456 109.962 235.659 140.93C138.862 171.898 86.3667 278.19 118.407 378.34Z" fill="#F0F0F0"/>
<path d="M252.588 476.25C234.892 476.25 218.498 473.979 203.728 469.417C161.838 456.478 132.916 425.905 117.765 378.546C102.215 329.941 105.89 278.391 128.114 233.393C150.342 188.386 188.462 155.32 235.453 140.287C332.452 109.253 437.48 165.646 469.583 265.989C484.734 313.348 478.929 355.033 452.328 389.884C429.126 420.282 389.668 445.049 338.22 461.509C307.57 471.315 278.668 476.25 252.588 476.25ZM119.05 378.135C134.06 425.048 162.683 455.326 204.127 468.127C240.399 479.332 286.625 476.599 337.809 460.223C388.992 443.848 428.221 419.242 451.255 389.064C477.572 354.585 483.306 313.315 468.297 266.401C436.421 166.766 332.152 110.768 235.865 141.573C189.225 156.494 151.388 189.315 129.324 233.99C107.256 278.674 103.607 329.865 119.05 378.135Z" fill="#1C1C1C"/>
<path d="M148.021 432.87C191.243 482.238 262.806 484.923 338.02 460.86C434.812 429.894 500.98 366.345 468.942 266.202C452.206 213.89 415.721 173.612 370.9 151.461C393.743 173.2 411.716 201.009 422.092 233.443C454.135 333.598 387.966 397.147 291.174 428.113C238.947 444.822 188.468 448.63 148.021 432.87Z" fill="#DADADA"/>
<path d="M252.582 479.957C234.512 479.957 217.75 477.633 202.633 472.964C159.516 459.646 129.772 428.259 114.23 379.677C98.3849 330.15 102.134 277.615 124.786 231.749C147.463 185.832 186.364 152.095 234.323 136.752C333.269 105.096 440.391 162.565 473.119 264.858C488.661 313.441 482.659 356.264 455.279 392.136C431.614 423.141 391.527 448.352 339.352 465.045C308.341 474.965 279.058 479.957 252.582 479.957ZM122.587 377.004C137.204 422.694 165.007 452.159 205.223 464.581C240.767 475.561 286.223 472.83 336.678 456.688C387.134 440.546 425.734 416.383 448.304 386.813C473.842 353.354 479.379 313.223 464.762 267.532C433.51 169.846 331.329 114.927 236.996 145.109C191.323 159.72 154.267 191.87 132.653 235.634C111.013 279.45 107.439 329.655 122.587 377.004Z" fill="#1C1C1C"/>
<path d="M259.865 148.245C234.478 97.1341 188.386 132.332 222.356 157.568L259.865 148.245Z" fill="#F0F0F0"/>
<path d="M221.953 158.11C212.208 150.87 207.934 142.005 210.227 133.789C212.11 127.048 218.268 122.224 225.917 121.5C238.723 120.295 251.642 130.174 260.47 147.944L259.261 148.546C250.693 131.294 238.282 121.685 226.044 122.844C218.956 123.515 213.259 127.954 211.528 134.152C209.392 141.8 213.486 150.138 222.758 157.026L221.953 158.11Z" fill="#1C1C1C"/>
<path d="M215.23 150.788C182.833 135.495 172.328 176.593 211.39 172.454L215.23 150.788Z" fill="#F0F0F0"/>
<path d="M206.22 173.412C196.53 173.412 189.389 170.244 186.661 164.554C184.565 160.181 185.561 154.992 189.199 151.334C194.951 145.546 204.791 145.114 215.518 150.177L214.941 151.398C204.755 146.59 195.49 146.921 190.156 152.286C186.927 155.533 186.033 160.12 187.879 163.97C190.82 170.106 199.585 173.025 211.318 171.783L211.46 173.125C209.644 173.317 207.894 173.412 206.22 173.412Z" fill="#1C1C1C"/>
<path d="M200.181 172.299C174.985 190.459 202.281 211.51 213.648 185.787L200.181 172.299Z" fill="#F0F0F0"/>
<path d="M199.492 198.435C199.233 198.435 198.974 198.426 198.713 198.408C194.351 198.105 190.763 195.212 189.573 191.035C187.807 184.842 191.625 177.633 199.785 171.751L200.575 172.846C192.896 178.381 189.268 185.043 190.871 190.665C191.903 194.288 195.019 196.798 198.807 197.061C204.343 197.432 209.666 193.129 213.029 185.515L214.265 186.06C210.813 193.87 205.335 198.434 199.492 198.435Z" fill="#1C1C1C"/>
<path d="M222.352 161.955C221.443 161.955 220.526 161.673 219.739 161.089C208.855 153.004 203.963 142.425 206.653 132.791C208.951 124.557 216.376 118.675 225.567 117.805C239.952 116.439 254.256 127.092 263.794 146.293C264.871 148.463 263.986 151.096 261.817 152.174C259.646 153.252 257.013 152.365 255.936 150.197C248.078 134.377 237.032 125.547 226.394 126.54C220.849 127.064 216.417 130.445 215.103 135.151C213.403 141.238 217 148.124 224.972 154.046C226.916 155.491 227.322 158.239 225.877 160.184C225.016 161.343 223.692 161.955 222.352 161.955Z" fill="#1C1C1C"/>
<path d="M205.961 177.143C190.407 177.143 184.994 169.663 183.314 166.158C180.53 160.351 181.807 153.504 186.566 148.717C193.477 141.766 204.892 141.057 217.103 146.821C219.294 147.855 220.231 150.47 219.197 152.661C218.163 154.852 215.548 155.792 213.357 154.755C203.108 149.917 196.011 151.66 192.789 154.902C190.65 157.054 190.051 159.914 191.226 162.366C192.948 165.96 199.022 169.352 210.927 168.091C213.345 167.84 215.497 169.583 215.752 171.992C216.007 174.401 214.261 176.561 211.851 176.816C209.743 177.04 207.782 177.143 205.961 177.143Z" fill="#1C1C1C"/>
<path d="M199.508 202.148C199.158 202.148 198.808 202.135 198.457 202.111C192.516 201.7 187.627 197.751 186.003 192.053C183.79 184.29 188.132 175.575 197.615 168.74C199.58 167.323 202.322 167.768 203.739 169.734C205.156 171.699 204.711 174.441 202.745 175.858C195.262 181.252 193.549 186.518 194.441 189.648C195.039 191.748 196.854 193.205 199.064 193.358C202.973 193.631 206.929 190.136 209.635 184.014C210.614 181.799 213.202 180.796 215.42 181.775C217.637 182.754 218.639 185.345 217.66 187.561C213.59 196.772 206.861 202.147 199.508 202.148Z" fill="#1C1C1C"/>
<path d="M285.801 286.113C308.087 294.944 325.255 313.581 338.569 339.605C342.299 346.897 350.21 351.031 358.351 350.13C399.322 345.596 415.709 294.468 381.906 253.91C337.736 201.553 276.315 228.558 273.604 266.628C273.004 275.049 277.953 283.002 285.801 286.113Z" fill="#4D4D4D"/>
<path d="M242.896 301.998C229.875 322.125 226.713 347.267 230.977 376.186C232.171 384.288 228.129 392.247 220.978 396.238C184.983 416.328 141.962 384.206 145.947 331.559C151.524 263.286 217.214 249.625 241.519 279.052C246.895 285.561 247.482 294.91 242.896 301.998Z" fill="#4D4D4D"/>
<path d="M504.805 406.94C522.583 446.676 501.604 469.524 441.877 475.502H371.055C267.034 472.009 305.281 385.977 479.947 392.402C490.499 391.376 500.475 397.262 504.805 406.94Z" fill="#4D4D4D"/>
<path d="M481.923 393.18C481.923 398.087 477.887 402.021 472.98 401.938C369.026 400.186 316.549 431.99 316.908 456.85C299.965 431.823 350.681 390.758 467.108 392.096L481.923 393.18Z" fill="#F0F0F0"/>
<path d="M690.31 475.502H671.072C671.072 475.502 610.181 426.456 671.072 375.395C671.595 374.961 672.104 374.528 672.589 374.094C776.521 376.861 817.332 475.502 690.31 475.502Z" fill="#4D4D4D"/>
<path d="M671.239 375.444C670.755 375.878 670.244 376.311 669.722 376.745C668.053 378.143 666.493 379.54 665.004 380.935C739.158 383.141 780.952 434.177 752.136 462.979C793.254 435.708 750.696 377.559 671.239 375.444Z" fill="#F0F0F0"/>
<path d="M690.31 479.885H371.049C371.001 479.885 370.951 479.885 370.902 479.882C340.15 478.851 319.208 470.756 311.935 457.086C307.937 449.571 308.594 440.866 313.786 432.571C322.074 419.332 341.201 407.63 367.643 399.623C397.967 390.441 436.859 386.431 480.108 388.021C482.529 388.111 484.42 390.146 484.331 392.567C484.241 394.988 482.229 396.882 479.785 396.79C437.491 395.234 399.594 399.116 370.186 408.021C346.128 415.306 328.282 425.951 321.223 437.227C317.666 442.908 317.148 448.204 319.681 452.965C325.246 463.425 344.475 470.206 371.124 471.111H690.31C726.919 471.111 752.973 462.35 761.793 447.073C766.558 438.82 766.002 428.766 760.227 418.764C748.63 398.678 715.639 378.411 668.078 378.412C665.655 378.412 663.691 376.448 663.691 374.025C663.691 371.602 665.655 369.638 668.078 369.638C719.138 369.637 754.967 392.107 767.825 414.377C775.233 427.208 775.79 440.378 769.392 451.46C758.808 469.79 730.724 479.885 690.31 479.885Z" fill="#1C1C1C"/>
<g opacity="0.5">
  <path d="M646.338 371.144C639.683 370.662 635.481 363.69 638.267 357.627C672.736 282.609 615.51 222.339 615.51 222.339L617.729 222.122C662.746 249.941 691.917 301.053 689.176 375.395C695.933 376.287 702.358 377.6 708.415 379.258C690.019 374.846 662.929 372.347 646.338 371.144Z" fill="#333333"/>
</g>
<g opacity="0.5">
  <path d="M690.31 475.502H682.737C743.284 468.707 742.748 394.748 722.948 384.192C722.898 384.166 722.859 384.141 722.808 384.115C785.841 409.78 794.001 475.502 690.31 475.502Z" fill="#333333"/>
</g>
<path d="M682.406 475.502H371.055C368.25 475.413 365.547 475.248 362.946 475.043L362.921 475.03C362.921 475.03 396.222 423.778 523.715 450.972C523.715 450.972 586.62 458.826 609.569 446.396C631.256 434.666 639.275 473.271 682.406 475.502Z" fill="#333333"/>
<path d="M696.609 475.413C694.556 475.477 692.452 475.502 690.311 475.502C692.72 475.387 694.811 475.362 696.609 475.413Z" fill="#792938"/>
<path d="M690.311 476.177L690.279 474.828C692.63 474.715 694.766 474.687 696.628 474.738L696.63 476.088C694.7 476.148 692.633 476.177 690.311 476.177Z" fill="#1C1C1C"/>
<path d="M253.83 335.999C256.697 344.961 269.486 354.261 280.468 350.748C291.45 347.234 296.466 332.238 293.598 323.276C290.731 314.314 281.061 314.764 270.08 318.277C259.098 321.79 250.963 327.037 253.83 335.999Z" fill="#181818"/>
<path d="M282.775 343.316L285.519 362.279C285.623 362.998 285.124 363.665 284.406 363.769C283.836 363.851 283.298 363.553 283.048 363.069L274.275 346.035C273.131 343.814 274.004 341.086 276.226 339.941C278.447 338.797 281.176 339.671 282.32 341.892C282.553 342.345 282.704 342.838 282.775 343.316Z" fill="#181818"/>
<path d="M334.779 296.953C329.52 296.953 323.96 295.044 319.018 290.333C317.4 288.789 317.338 286.226 318.881 284.607C320.424 282.988 322.988 282.926 324.607 284.47C331.232 290.786 338.789 289.298 343.245 286.103C347.364 283.154 350.987 277.15 347.646 269.942C346.705 267.912 347.588 265.505 349.617 264.564C351.65 263.623 354.054 264.506 354.995 266.535C360.07 277.486 355.12 287.561 347.963 292.688C344.331 295.29 339.687 296.953 334.779 296.953Z" fill="#1C1C1C">
  <animateTransform attributeName="transform" attributeType="XML" type="translate" values="0 0;1 -3;2 3;0 0" dur="3s" repeatCount="indefinite"/>
</path>
<path d="M198.448 342.923C191.065 342.923 184.152 339.61 179.77 333.557C178.458 331.745 178.864 329.213 180.675 327.901C182.488 326.591 185.02 326.995 186.331 328.807C190.936 335.17 198.851 335.837 204.652 333.676C209.958 331.699 215.379 326.723 214.681 318.681C214.488 316.453 216.137 314.49 218.366 314.297C220.593 314.101 222.557 315.753 222.75 317.981C223.65 328.336 217.655 337.476 207.48 341.267C204.483 342.383 201.427 342.922 198.448 342.923Z" fill="#1C1C1C">
  <animateTransform attributeName="transform" attributeType="XML" type="translate" values="0 0;1 -3;2 3;0 0" dur="3s" repeatCount="indefinite"/>
</path>
<path d="M323.254 395.184C321.444 402.77 313.803 409.348 303.623 413.403C295.204 416.756 286.98 417.584 280.918 415.264C276.957 413.747 273.92 410.891 272.341 406.518C268.344 395.439 276.374 381.976 290.284 376.442C304.194 370.909 318.711 375.41 322.708 386.502C323.777 389.472 323.91 392.392 323.254 395.184Z" fill="#1C1C1C"/>
<path d="M323.255 395.184C321.444 402.77 313.803 409.348 303.623 413.403C295.204 416.756 286.98 417.585 280.918 415.264C282.533 406.901 289.507 398.805 299.517 394.827C308.057 391.423 316.828 391.818 323.255 395.184Z" fill="#FF2C4A"/>
<path d="M288.745 420.968C286.94 420.968 285.203 420.817 283.55 420.514C276.212 419.166 270.845 414.75 268.437 408.078C266.028 401.405 266.957 393.945 271.055 387.073C274.924 380.584 281.227 375.351 288.801 372.339C296.377 369.328 304.4 368.865 311.396 371.034C318.803 373.331 324.209 378.271 326.619 384.945H326.618C329.027 391.616 327.795 398.656 323.15 404.768C319.189 409.981 312.949 414.385 305.105 417.504C299.334 419.798 293.773 420.968 288.745 420.968ZM302.261 378.457C298.83 378.457 295.252 379.157 291.763 380.544C285.886 382.881 281.048 386.853 278.142 391.727C275.464 396.219 274.793 400.921 276.254 404.97C277.614 408.734 280.553 411.056 284.991 411.871C289.705 412.737 295.795 411.824 302.143 409.299C308.492 406.774 313.632 403.223 316.615 399.298C319.424 395.601 320.159 391.818 318.801 388.054H318.8C317.339 384.006 313.868 380.949 309.026 379.447C306.89 378.785 304.61 378.457 302.261 378.457Z" fill="#1C1C1C"/>
<path d="M251.824 75.6603L239.138 111C238.295 113.302 238.161 114.158 238.377 115.379C238.72 117.329 240.681 119.349 243.852 118.79L266.306 114.831C269.684 114.235 270.724 112.244 270.319 109.95C269.915 107.655 268.256 106.14 264.878 106.736L249.033 109.53L261.861 74.5912C262.67 72.499 262.937 70.8475 262.699 69.4983C262.223 66.7999 260.245 65.8287 257.211 66.3636L236.432 70.0276C233.064 70.6214 232.024 72.6123 232.428 74.9069C232.833 77.2015 234.491 78.7166 237.859 78.1227L251.824 75.6603Z" fill="#F0F0F0">
  <animateTransform attributeName="transform" attributeType="XML" type="translate" values="0 100;-10 50;10 0;0 -60" dur="2.8s" repeatCount="indefinite"/>
  <animate attributeName="opacity" values="1;0" dur="2.8s" repeatCount="indefinite"/>
</path>
<g opacity="0.3006">
  <path d="M305.032 9.68978L286.896 30.74C285.703 32.1063 285.384 32.6624 285.209 33.5632C284.929 35.0015 285.748 36.9171 288.087 37.3717L304.649 40.5911C307.14 41.0754 308.387 39.9758 308.716 38.2833C309.045 36.5908 308.301 35.1043 305.809 34.62L294.122 32.3481L312.249 11.6129C313.363 10.382 313.985 9.31191 314.179 8.31673C314.566 6.32639 313.456 5.13073 311.219 4.69584L295.892 1.71654C293.408 1.23364 292.161 2.3332 291.832 4.02572C291.503 5.71825 292.247 7.20469 294.731 7.68759L305.032 9.68978Z" fill="#F0F0F0">
    <animateTransform attributeName="transform" attributeType="XML" type="translate" values="0 140;10 100;-10 50;0 0" dur="2.3s" repeatCount="indefinite"/>
    <animate attributeName="opacity" values="1;0" dur="2.3s" repeatCount="indefinite"/>
  </path>
</g>
</svg>
